<svg xmlns="http://www.w3.org/2000/svg" fill-rule="evenodd" stroke-linejoin="round" stroke-miterlimit="1.4" clip-rule="evenodd" viewBox="0 0 267 85">
  <path fill="#1d5abd" fill-rule="nonzero" d="M108.7 25.7l-.2-5-5 1 2.7-13.4L126 0v5l3.3-3.5 14 11.7-12.9 18.5 10 7.8c.3-3.2 1.3-6.4 3-9.5 1.8-3 5-5.3 8.2-6.7l.3-.1-2.8.4-5.5-9.6 19-9.5 8.2 13.8 1.6-9 19 .5.8 1.8 1.8-4 14.3 1 1.8 21.4c2.3-1 4.8-1.6 7.2-1.7h.5c3.5 0 7 1.2 9.7 3.3l1-4-3.6-2 3-12.2 19.1 6.7.2 1.2 19 6.1-15.4 57.2-14.3-3-.6-8.1-.8 3-17.5-4.5 2.5-10.2a20.3 20.3 0 0 1-7.3 1.1l.9 10.9-23.2-5-.5-10.4-1.8 3-1.6-4.4-1.2 6.5-23-.4 1.6-8c-2.6.6-5.3.9-8 .8l.8 13.7-27.2-14.8.5 10.2-19.4.3-.4-7.2c-5 3-11 4-16.6.5-5.9-3.6-8.3-11.7-6.8-18.7l-3.5 4-.1.1 6.4 16.4L78 70.8 73 60c-4 7.2-13.8 11-21.4 10.3l-8.1 5-10-14.6L40 72.3 27 80.9l-14-26.3-.7 1.6L0 42.6c8.2-6.3 16-14 26.8-15.4h2c6.7 0 13.2 4.8 10 14.9 0 0 1.3 1.1 2.6 2.5 3-5.2 9.1-9 15.6-9.8-1.5-2.7-2.4-6.2-4.2-9.4l-2.2-3.6c10-4.4 20-9.6 31.2-9.7h.3c6.3.2 13.5 4.6 13.3 11.2-.1 2.1-.6 4.1-1.3 6a18.2 18.2 0 0 1 11-4c1.3 0 2.5 0 3.6.4zM66.1 47.2l1.4 1-1-2-.4 1zm104.3-26.7c-3.2.3-9.9 1.1-8 1.3 2.6.3 5 1 7.3 2.3l.7-3.6z"/>
  <path fill="#fac400" fill-rule="nonzero" d="M47 69.2l-2.5 1.5-11-16.3-1-1-1.5-1.1c-.6-.4-1.2-.5-1.7-.3a2 2 0 0 0-.4.2 58.7 58.7 0 0 1-2 3.8l8.4 15.2-7 4.6L14 48.5l-.4.6a37 37 0 0 0-1 2.5l-.7-.8a150.6 150.6 0 0 1-4.6-5.6l-1.9-2.3a546.3 546.3 0 0 1 9-6.5 62.5 62.5 0 0 1 9.1-4.8c1.2-.4 2.4-.7 3.4-.8 1.1-.2 2.2-.2 3.2-.1a9 9 0 0 1 5.6 2.8l.6 1c.2.8.3 1.7.2 2.7-.2 1-.4 2.1-.8 3.3a65 65 0 0 1-1.4 3.9c.9-.2 1.8.1 3 1 1 .7 1.9 1.6 2.7 2.8l-.4 1.6c-1 6.4.4 14.2 5.6 18.2l1.8 1.2zM63.8 50l7.2 5c0 1.4-.8 2.9-2.1 4.4a26.6 26.6 0 0 1-11.6 6.9c-2 .5-3.9.7-5.6.6a7.8 7.8 0 0 1-4.3-1.4c-2-1.4-3.3-3.6-4.1-6.4a19.6 19.6 0 0 1 .7-12.4 17.4 17.4 0 0 1 10.6-8c2-.4 3.8-.6 5.7-.5 2 .1 3.7.6 5.3 1.4l-8.3 18.2c1-.3 2-.8 2.9-1.5.9-.8 1.6-1.7 2.2-2.7.6-1.1 1-2.3 1.4-3.6zm-7.7-3.6a5 5 0 0 0-2.5 0 6 6 0 0 0-2.2 1.2c-.6.6-1 1-1.3 1.6a6.6 6.6 0 0 0 .3 5.9l1 1.8 4.7-10.5zM20 44l3.5 6c.9-.5 1.7-1.7 2.4-3.6.7-1.9.9-3.3.6-4.2-.2-.4-.5-.7-.8-.6-1.7.1-2.8.3-3.3.5a5 5 0 0 0-2.4 1.9z"/>
  <path fill="#fad500" fill-rule="nonzero" d="M230.4 34.4l2.2-8.6-3.7-2 1.4-5.8 13.5 4.7 1.7 16.6 2.6-14 13.8 4.4-13.6 50.8-8.5-1.7-1.9-26.4-5.3 19.8-10.7-2.8 2.3-9.6c6-4 9.2-11 9-17.8-.2-3-1.2-5.5-2.8-7.6zm-21.2 27.8l.6 7.2-16-3.5-1-19.5-3.9 6.8-3.4-9.4-3 16.1-15.8-.2 1.1-6c2.4-1.3 4.5-3 6-5.1.7-1 1-2.3 1.5-3.4l-4.8-6.4 1-4.8 4.3-4.8-2.6-2.5-.4-.3 2.5-13.5 13.8.4 3 7.2 4.1-9.2 8.9.7 1.6 19.8c-3 2-5.5 4.9-6.8 8.2-3.8 10 1.6 19.6 9.3 22.2zM61.4 34.8l-.6-1a174.9 174.9 0 0 1-3.6-7.4l-1.5-3a627 627 0 0 1 11.5-4.8A70.1 70.1 0 0 1 77.5 16c2.5-.2 4.2-.3 5-.2 1.2 0 2.4.3 3.5.7a10 10 0 0 1 5.4 4.6c.2.5.4 1 .4 1.5.2 2-.6 4.5-2.5 7.5a66.7 66.7 0 0 1-10 13.3l6.3 16.1-6.4 5.6-4.6-9.8.2-1.9-1.6-1L68.5 42l1.8-4-3.2-1.6-1.5-.6-1.9-4-.4.5-1 1.4-.9 1zm91 20.7l.5 8-27-14.8.5 12.8-12.4.2-.3-6.2c3.4-3.2 5.8-7.5 6.3-11.8 1-8.1-2.5-14-7.7-16.7l-.5-10.6-3.9.8 1.3-6.4 13.3-5.5v8.5l7-7.5 9 7.6-12.9 18.5 15 11.7c.9 4.9 3.6 8.9 8 10.4 1.2.4 2.5.8 3.9 1zm74-20.5c1 .8 1.7 1.7 2.3 2.8.5 1.1.8 2.3 1 3.6a15.9 15.9 0 0 1-1 7.1l-1.2 2.7a22.2 22.2 0 0 1-5.2 5.3 17.1 17.1 0 0 1-7.5 2.8A11.5 11.5 0 0 1 205 56c-1.2-1.3-2-3-2.5-5-.4-2.2-.5-4.3-.1-6.4.6-3.7 2.1-6.6 4.6-8.5 2.2-1.7 4.3-2.8 6.5-3.5a13.3 13.3 0 0 1 12.9 2.5zm-115-4.7c1.2.5 2.2 1.3 3 2.3.7 1 1.2 2 1.6 3.3a15.9 15.9 0 0 1 .6 7.2L116 46c-.3.9-.6 1.6-1 2.2-1 1.6-2 2.9-3 4a17.1 17.1 0 0 1-6.7 4.3A11.5 11.5 0 0 1 95 55.2c-1.5-1-2.6-2.5-3.5-4.5-.9-1.9-1.4-4-1.5-6.1-.2-3.8.7-6.9 2.8-9.3 1.8-2 3.6-3.6 5.5-4.7a13.3 13.3 0 0 1 13.2-.3zm54.6 8.3l5.4 7a7.4 7.4 0 0 1-3.4 3.6 26.7 26.7 0 0 1-13.2 3c-2-.2-3.9-.5-5.5-1.2a7.8 7.8 0 0 1-3.6-2.6c-1.4-2-2.1-4.4-2-7.4a19.6 19.6 0 0 1 4.5-11.5 17.4 17.4 0 0 1 12.5-4.3c2 0 3.9.5 5.7 1.2a14 14 0 0 1 4.5 3L157.4 44c1.1 0 2.2-.1 3.3-.6 1-.4 2-1 2.9-1.9a15 15 0 0 0 2.4-3zm58.4 0c-.5 1.2-1.2 2.1-2.2 2.9-1 .7-2 1-2.8 1a2 2 0 0 1-1-.6c-.5-.4-.6-1.1-.4-2 0-.8.4-1.4 1-2 .6-.7 1.4-1 2.5-1.3-1-.2-2-.2-3 0-1 .3-2 .7-2.7 1.2-.8.5-1.5 1-2 1.8-.5.7-.8 1.4-1 2.2a4 4 0 0 0 1.5 3.7c1 1 2.2 1.6 3.3 1.8 1 .1 2.1 0 3-.7 1-.6 1.9-1.4 2.5-2.5a9.5 9.5 0 0 0 1.3-5.4zm-114.1-4.3a6.5 6.5 0 0 1-1.6 3.2c-.8 1-1.6 1.5-2.5 1.5a2 2 0 0 1-1.1-.3c-.5-.3-.8-1-.8-1.9 0-.7.1-1.4.6-2.1.4-.8 1.2-1.4 2.2-1.8a8.4 8.4 0 0 0-5.4 2.4c-.6.6-1.2 1.3-1.5 2.1-.4.8-.6 1.6-.5 2.4a4 4 0 0 0 2.2 3.3c1.2.8 2.4 1.1 3.6 1 1 0 2-.4 2.9-1.2.8-.8 1.4-1.8 1.8-3 .4-1.1.5-2.3.5-3.5 0-.7-.2-1.4-.4-2zm49.5-1.4c-.8-.4-1.6-.7-2.3-.7a6 6 0 0 0-2.5.4c-.8.3-1.4.7-1.7 1.1a6.6 6.6 0 0 0-1.6 5.7l.5 2 7.6-8.5zM73.5 29l2.9 7.5c1-1.2 2.1-2.9 3.6-5 1.4-2 2-3.5 2-4.3 0-.3-.2-.5-.5-.5a10.8 10.8 0 0 0-8 2.3zm75-13.6L161.3 9l5 8.5-15.3 2.2-2.5-4.3z"/>
</svg>
