<svg xmlns="http://www.w3.org/2000/svg" fill-rule="evenodd" viewBox="0 0 600 600">
  <path fill="#dd2120" d="M300 13.6c158.2 0 286.4 128.2 286.4 286.4S458.2 586.4 300 586.4 13.6 458.2 13.6 300 141.8 13.6 300 13.6"/>
  <path fill="#fff" d="M586.4 300c0 158.2-128.2 286.4-286.4 286.4S13.6 458.2 13.6 300"/>
  <path fill="#1d1d1b" d="M10 245.5h580v109H10v-109"/>
  <path fill="#fff" d="M300 193.6c58.7 0 106.4 47.7 106.4 106.4S358.7 406.4 300 406.4 193.6 358.7 193.6 300 241.3 193.6 300 193.6"/>
  <path fill="#1d1d1b" d="M300 191c60.2 0 109 48.8 109 109s-48.8 109-109 109-109-48.8-109-109 48.8-109 109-109m0 27.2c45.2 0 81.8 36.6 81.8 81.8 0 45.2-36.6 81.8-81.8 81.8-45.2 0-81.8-36.6-81.8-81.8 0-45.2 36.6-81.8 81.8-81.8"/>
  <path fill="#fff" d="M300 234.5c36 0 65.5 29.3 65.5 65.5 0 36-29.4 65.5-65.5 65.5-36 0-65.5-29.4-65.5-65.5 0-36 29.4-65.5 65.5-65.5"/>
  <path fill="#1d1d1b" d="M300 231.8c37.7 0 68.2 30.5 68.2 68.2s-30.5 68.2-68.2 68.2-68.2-30.5-68.2-68.2 30.5-68.2 68.2-68.2m0 16.4c28.6 0 51.8 23.2 51.8 51.8 0 28.6-23.2 51.8-51.8 51.8-28.6 0-51.8-23.2-51.8-51.8 0-28.6 23.2-51.8 51.8-51.8"/>
  <path fill="#1d1d1b" d="M300 0c165.7 0 300 134.3 300 300S465.7 600 300 600 0 465.7 0 300 134.3 0 300 0m0 27.3c150.6 0 272.7 122 272.7 272.7 0 150.6-122 272.7-272.7 272.7-150.6 0-272.7-122-272.7-272.7 0-150.6 122-272.7 272.7-272.7"/>
</svg>
